<svg id="Layer_1" enable-background="new 0 0 512 512" height="512" viewBox="0 0 512 512" width="512" xmlns="http://www.w3.org/2000/svg"><g clip-rule="evenodd" fill-rule="evenodd"><path d="m256.005.001c141.373 0 255.992 114.61 255.992 256.002 0 141.387-114.619 255.997-255.992 255.997-141.388 0-256.002-114.609-256.002-255.997 0-141.393 114.614-256.002 256.002-256.002z" fill="#f280ff"/><path d="m511.304 237.142c.453 6.229.693 12.516.693 18.861 0 140.946-113.909 255.268-254.674 255.98l-110.776-110.776v-7.12l-31.896-31.896c-5.28-4.36-8.649-10.954-8.649-18.324v-76.457c0-13.097 10.648-23.745 23.75-23.745h5.081l19.999 19.999v-117.369c0-19.583 15.922-35.506 35.511-35.506h180.144c11.021 0 20.879 5.038 27.396 12.932z" fill="#c252ff"/><path d="m146.547 367.621v33.586l33.595-33.6 70.083.014c12.743 0 23.16-10.082 23.721-22.683h-83.604c-30.628 0-55.509-24.891-55.509-55.519v-45.753h-5.081c-13.101 0-23.75 10.648-23.75 23.745v76.457c0 13.101 10.648 23.754 23.75 23.754h16.795zm198.832-42.682v50.23l-50.24-50.23h-104.796c-19.588 0-35.511-15.932-35.511-35.52v-143.124c0-19.583 15.922-35.506 35.511-35.506h180.144c19.593 0 35.511 15.923 35.511 35.506v143.124c0 19.588-15.918 35.52-35.511 35.52zm-.831-160.424c0-5.525-4.482-10.002-10.001-10.002h-108.264c-5.52 0-9.997 4.477-9.997 10.002 0 5.52 4.477 9.997 9.997 9.997h108.264c5.519 0 10.001-4.477 10.001-9.997zm0 53.349c0-5.524-4.482-10.002-10.001-10.002h-108.264c-5.52 0-9.997 4.477-9.997 10.002 0 5.52 4.477 9.997 9.997 9.997h108.264c5.519 0 10.001-4.477 10.001-9.997zm0 53.344c0 5.52-4.482 10.002-10.001 10.002h-108.264c-5.52 0-9.997-4.482-9.997-10.002 0-5.524 4.477-10.002 9.997-10.002h108.264c5.519 0 10.001 4.477 10.001 10.002z" fill="#fff"/></g></svg>